<svg width="434" height="409" viewBox="0 0 434 409" fill="none" xmlns="http://www.w3.org/2000/svg">
<g filter="url(#filter0_ii_19_99)">
<g filter="url(#filter1_d_19_99)">
<circle cx="218.82" cy="201" r="200" fill="url(#paint0_radial_19_99)"/>
</g>
<path d="M206.933 401.28C122.654 395.479 48.6435 328.74 27.7606 247.95C8.49545 164.169 46.7614 69.826 121.427 26.0945C169.457 -2.72066 229.712 -6.32272 282.871 8.68496C348.523 28.9504 398.495 87.6314 416.043 153.114C431.806 213.443 420.444 281.941 378.554 329.493C340.607 376.948 279.965 404.303 219.323 401.853C215.185 401.77 211.061 401.576 206.937 401.285L206.933 401.28ZM257.154 391.783C272.28 390.454 269.623 385.789 255.867 384.612C231.29 379.864 204.76 379.739 181.04 388.073C201.923 398.179 229.657 395.576 253.03 392.558L257.154 391.783ZM182.701 378.438C193.495 367.377 182.244 340.936 172.806 330.47C151.728 319.673 135.383 302.008 116.103 288.691C101.582 283.389 87.4188 293.481 73.3833 296.9C73.3211 310.827 72.416 326.553 84.6219 336.243C104.716 356.164 128.97 373.634 156.342 381.567C165.14 381.968 174.37 381.442 182.701 378.438ZM298.27 378.992C333.241 363.847 366.053 339.524 385.773 306.411C392.873 296.886 398.09 280.205 379.546 285.728C356.241 300.43 335.206 318.634 311.334 332.575C296.858 344.065 286.438 359.888 276.141 375.005C279.726 383.394 291.392 381.387 298.27 378.992ZM321.976 318.164C339.551 303.683 365.001 294.353 374.232 272.383C378.397 255.107 378.729 237.235 380.459 219.612C362.939 204.011 341.433 193.42 320.398 183.425C299.598 185.1 282.798 203.623 266.357 215.639C257.597 220.484 259.853 231.393 257.473 239.768C254.29 259.315 250.595 278.821 248.477 298.534C264.835 310.674 283.089 321.832 302.975 326.511C310.171 326.608 316.136 321.721 321.976 318.164ZM196.582 321.209C212.496 315.104 233.573 310.508 241.046 293.578C246.582 269.85 249.668 245.569 252.601 221.412C236.784 206.309 219.886 190.389 199.142 182.512C181.262 182.235 166.094 194.929 150.17 201.865C128.749 207.693 121.309 227.254 120.372 247.451C114.088 267.427 121.301 287.943 139.363 298.949C155.14 310.619 175.422 329.238 196.582 321.209ZM63.3142 293.204C50.3969 269.241 41.4888 242.994 37.9322 215.999C25.1576 218.574 36.7683 250.026 40.289 262.859C46.3117 280.205 55.5256 296.139 65.08 311.713C66.8279 305.303 67.863 298.935 63.3142 293.204ZM57.7509 186.526C63.3917 178.442 72.3703 172.06 75.754 162.826C81.7254 134.872 91.4667 107.887 105.398 82.8969C104.81 66.7513 86.8348 56.9419 77.8851 74.7335C52.3814 107.668 32.3759 147.806 31.4957 190.153C28.1426 204.689 40.747 215.251 48.0069 198.058C51.2605 194.209 54.5071 190.375 57.7509 186.526ZM386.148 206.544C396.957 192.313 411.889 175.424 408.014 156.154C401.247 119.611 382.536 84.9139 353.793 61.099C345.268 57.4693 329.672 44.1145 323.721 56.7287C314.919 73.6758 293.04 89.6982 300.928 110.804C307.682 131.638 312.608 153.413 322.462 173.029C340.591 187.218 361.584 198.238 382.689 207.554L386.148 206.544ZM145.033 197.075C161.768 188.603 178.015 179.231 194.345 169.983C199.839 150.713 206.745 131.875 213.18 112.919C214.079 92.4212 195.84 77.6932 183.648 63.3181C171.663 44.0882 151.397 58.837 136.611 65.8709C104.064 83.3012 96.5926 121.672 85.5339 153.703C87.0686 165.692 98.0208 175.701 106.014 184.671C117.062 195.788 129.482 210.655 145.033 197.075ZM265.062 93.4595C273.711 92.269 283.385 93.1411 291.425 90.6839C303.437 77.7057 314.024 62.5 319.034 45.4407C312.986 28.2444 292.961 20.4076 276.88 14.5546C256.399 8.44242 234.464 5.44933 213.208 7.86418C182.5 11.3527 170.335 38.5274 185.876 56.2041C197.265 69.7956 209.374 82.7489 221.719 95.4725C236.194 95.6151 250.628 94.4811 265.062 93.4595Z" fill="url(#paint1_radial_19_99)"/>
</g>
<g opacity="0.45" filter="url(#filter2_f_19_99)">
<path fill-rule="evenodd" clip-rule="evenodd" d="M376.38 302.661C391.314 273.557 399.82 240.053 399.82 204.398C399.82 149.912 379.957 100.449 347.644 64.0352C324.869 83.1051 303.534 116.56 305.339 174.466C306.292 205.422 321.871 227.893 336.671 249.241C351.327 270.381 365.22 290.421 363.395 316.51C363.395 316.51 368.992 311.601 376.38 302.661ZM340.832 352.056C355.482 329.388 353.719 306.242 353.719 306.242C353.719 306.242 354.731 287.143 325.324 249.082C309.766 228.956 301.039 203.833 301.039 203.833C301.039 203.833 291.212 227.419 307.895 274.527C301.989 295.042 275.998 356.16 177.344 347.116L177.337 347.109L177.34 347.115L177.273 347.109C177.273 347.109 177.345 347.194 177.487 347.355C180.095 351.567 216.744 408.328 286.303 389.209C289.183 388.417 291.94 387.557 294.579 386.635C311.604 377.649 327.182 365.95 340.832 352.056ZM129.233 22.9996C131.726 30.1438 134.972 37.4612 138.949 44.6943C145.856 37.3665 154.848 32.771 164.372 31.6015C162.703 44.2514 163.225 59.2745 166.418 74.8923C182.428 90.1449 194.378 110.267 200.294 133.12C203.645 139.075 206.302 144.962 208.262 150.507C214.713 156.052 219.583 161.802 222.239 166.936C223.693 168.922 224.515 171.112 224.515 173.508V173.919C224.642 175.63 224.389 177.136 223.693 178.437C223.251 179.258 222.681 179.943 221.922 180.559C218.95 184.255 213.764 186.994 207.566 187.952C204.239 190.071 200.344 191.492 196.115 192.028C194.718 192.229 193.283 192.333 191.819 192.333C189.795 192.333 187.835 192.128 185.938 191.717C184.104 191.58 182.08 190.964 179.93 189.8C177.779 188.842 175.819 187.61 174.048 186.172C168.04 178.026 157.858 171.66 145.652 169.469C144.64 169.264 143.692 169.127 142.68 168.99C133.257 170.291 113.019 188.91 105.241 219.167C101.944 235.35 97.9313 259.109 105.512 287.859C106.369 291.087 107.372 294.382 108.529 297.753C121.395 326.275 148.046 359.814 190.491 379.733C208.953 388.381 230.4 394.446 254.998 396.397C254.998 396.397 254.955 396.415 254.87 396.45L255.061 396.465C255.061 396.465 164.372 435.21 72.6076 336.978C48.9926 310.918 33.5931 273.584 28.5935 233.236L28.591 233.269C28.5252 232.719 28.461 232.168 28.3986 231.617C27.3542 222.673 26.8202 213.588 26.8202 204.45L26.8202 204.379L26.8202 204.313C26.8202 179.835 31.024 156.511 38.6192 135.289C37.4894 136.733 36.3797 138.22 35.2899 139.746C46.7001 103.026 67.5623 71.0099 94.7448 47.0874C96.0424 47.9702 97.2842 48.9183 98.4612 49.9366C98.3728 48.8665 98.3295 47.7806 98.3314 46.6867C98.3299 45.7732 98.3598 44.8539 98.4213 43.9335C107.998 35.9262 118.312 28.9018 129.233 22.9996Z" fill="url(#paint2_linear_19_99)"/>
</g>
<g filter="url(#filter3_i_19_99)">
<path d="M164.197 82.2358C160.209 65.816 159.465 49.9368 161.358 36.6929C145.271 38.5173 130.604 48.7882 123.912 64.8025C114.044 88.3172 125.129 115.413 148.718 125.279C160.277 130.144 172.713 129.873 183.596 125.616C175.35 114.535 168.388 99.4664 164.197 82.2358Z" fill="url(#paint3_linear_19_99)"/>
</g>
<path d="M101.674 299.409C89.3725 266.637 94.2392 239.609 98.1595 221.837C106.473 191.971 128.103 173.592 138.174 172.308C139.255 172.443 140.269 172.578 141.351 172.781C154.396 174.943 165.278 181.227 171.7 189.268C173.592 190.687 175.688 191.904 177.986 192.85C180.284 193.998 182.447 194.606 184.407 194.742C186.435 195.147 188.53 195.35 190.693 195.35C196.776 195.35 202.386 193.796 206.983 191.093C213.607 190.147 219.149 187.444 222.326 183.795C223.137 183.187 223.745 182.511 224.219 181.7C224.962 180.416 225.232 178.93 225.097 177.241C225.097 177.105 225.097 176.97 225.097 176.835C225.097 174.47 224.219 172.308 222.664 170.348C219.825 165.281 214.62 159.605 207.726 154.131C205.631 148.658 202.792 142.847 199.21 136.968C190.896 107.305 171.429 82.3033 145.609 66.762C141.959 62.3023 138.444 57.4372 135.2 52.2342C126.143 37.7065 120.33 22.7057 117.964 9.39424C103.094 16.2865 92.279 30.8142 90.9272 48.3151C90.7244 50.545 90.7244 52.7748 90.9272 54.9371C87.8855 52.5045 84.4383 50.4774 80.7208 48.7881C68.9598 43.5852 56.2525 43.5852 45.1674 47.707C50.9127 55.748 55.9821 65.7485 59.8349 77.1004C46.3165 85.0062 32.7305 97.7096 21.5102 114.129C4.34184 139.266 -2.75532 166.497 0.962242 186.025C4.54462 174.335 10.3575 162.172 18.3334 150.415C21.1046 146.361 24.0111 142.509 27.0527 138.928C18.8741 159.942 14.3454 183.052 14.3454 207.31C14.3454 257.65 32.1221 306.369 63.282 338.127C161.358 435.092 258.285 396.846 258.285 396.846C171.497 390.427 121.411 339.817 101.674 299.409Z" fill="url(#paint4_linear_19_99)"/>
<path d="M319.126 268.866C319.126 268.866 307.1 358.14 180.362 351.342C180.362 351.342 224.312 396.686 295.47 371.212C366.694 345.668 319.126 268.866 319.126 268.866Z" fill="url(#paint5_linear_19_99)"/>
<path d="M308.167 205.862C308.167 205.862 298.042 230.313 318.731 277.869C336.432 318.555 309.377 346.576 284.284 361.623C267.159 371.959 214.137 378.345 180.429 351.34C180.429 351.34 221.587 411.238 298.129 389.247C374.671 367.255 367.595 305.145 367.595 305.145C367.595 305.145 368.088 286.268 335.502 249.696C318.263 230.358 308.167 205.862 308.167 205.862Z" fill="url(#paint6_linear_19_99)"/>
<path d="M118.031 9.46182C109.447 22.7057 92.9548 61.2888 149.259 110.143C199.615 153.794 192.653 171.362 189.273 195.215C189.949 195.282 190.558 195.282 191.234 195.282C197.317 195.282 202.927 193.728 207.523 191.025C214.147 190.079 219.69 187.376 222.867 183.727C223.678 183.119 224.286 182.444 224.759 181.633C225.503 180.349 225.773 178.862 225.638 177.173C225.638 177.038 225.638 176.903 225.638 176.768C225.638 174.403 224.759 172.24 223.205 170.281C220.366 165.213 215.161 159.537 208.267 154.064C206.171 148.591 203.333 142.779 199.75 136.901C191.436 107.237 171.97 82.2358 146.15 66.6945C142.5 62.2348 138.985 57.3697 135.741 52.1667C126.683 37.6389 120.87 22.6382 118.505 9.32669C118.369 9.32669 118.234 9.39425 118.031 9.46182Z" fill="url(#paint7_linear_19_99)"/>
<g filter="url(#filter4_i_19_99)">
<path d="M94.7799 138.185C152.03 136.563 179.675 175.754 189.409 194.066C192.856 170.821 198.804 153.118 149.259 110.143C92.9549 61.2888 109.447 22.7057 118.032 9.4618C118.032 9.39423 118.032 9.32667 117.964 9.25909C103.094 16.1513 92.279 30.6791 90.9272 48.18C90.7244 50.4098 90.7244 52.6397 90.9272 54.802C87.8855 52.3694 84.4383 50.3423 80.7208 48.653C68.9598 43.45 56.2525 43.45 45.1674 47.5719C50.9127 55.6128 55.9821 65.6133 59.8349 76.9653C46.3165 84.8711 32.7305 97.5744 21.5102 113.994C4.34184 139.131 -2.75532 166.362 0.962242 185.89C4.54462 174.2 10.3575 162.037 18.3334 150.28C21.1046 146.226 24.0111 142.374 27.0528 138.793C18.8741 159.807 14.3454 182.917 14.3454 207.175C14.3454 216.77 15.0214 226.365 16.238 235.757C20.4963 183.998 49.8988 139.468 94.7799 138.185Z" fill="url(#paint8_linear_19_99)"/>
</g>
<path d="M101.674 299.409C99.0382 292.314 97.1457 285.557 95.929 279.07C92.3466 353.399 156.086 388.671 197.925 403.807C234.155 406.239 258.217 396.779 258.217 396.779C171.497 390.428 121.411 339.884 101.674 299.409Z" fill="url(#paint9_linear_19_99)"/>
<g filter="url(#filter5_i_19_99)">
<path d="M415.43 30.9996C415.43 30.9996 308.683 46.5623 312.944 173.525C315.183 241.132 388.924 273.054 378.524 323C378.524 323 435.653 276.601 433.775 208.632C432.258 152.172 374.624 85.9396 415.43 30.9996Z" fill="url(#paint10_linear_19_99)"/>
</g>
<path d="M378.674 323C404.553 287.676 426.143 246.489 396.92 182.356C362.028 105.845 387.616 53.8008 415.82 30.9996C395.975 34.5464 308.09 59.0848 311.943 172.801C314.124 237.948 382.891 267.553 378.674 323Z" fill="url(#paint11_linear_19_99)"/>
<defs>
<filter id="filter0_ii_19_99" x="-11.1798" y="-50" width="484.012" height="472.005" filterUnits="userSpaceOnUse" color-interpolation-filters="sRGB">
<feFlood flood-opacity="0" result="BackgroundImageFix"/>
<feBlend mode="normal" in="SourceGraphic" in2="BackgroundImageFix" result="shape"/>
<feColorMatrix in="SourceAlpha" type="matrix" values="0 0 0 0 0 0 0 0 0 0 0 0 0 0 0 0 0 0 127 0" result="hardAlpha"/>
<feOffset dx="100" dy="-100"/>
<feGaussianBlur stdDeviation="25"/>
<feComposite in2="hardAlpha" operator="arithmetic" k2="-1" k3="1"/>
<feColorMatrix type="matrix" values="0 0 0 0 0.370833 0 0 0 0 0.0849826 0 0 0 0 0.0849826 0 0 0 0.56 0"/>
<feBlend mode="normal" in2="shape" result="effect1_innerShadow_19_99"/>
<feColorMatrix in="SourceAlpha" type="matrix" values="0 0 0 0 0 0 0 0 0 0 0 0 0 0 0 0 0 0 127 0" result="hardAlpha"/>
<feOffset dx="-30" dy="20"/>
<feGaussianBlur stdDeviation="25"/>
<feComposite in2="hardAlpha" operator="arithmetic" k2="-1" k3="1"/>
<feColorMatrix type="matrix" values="0 0 0 0 1 0 0 0 0 0.72 0 0 0 0 0 0 0 0 0.49 0"/>
<feBlend mode="normal" in2="effect1_innerShadow_19_99" result="effect2_innerShadow_19_99"/>
</filter>
<filter id="filter1_d_19_99" x="14.8202" y="0.999573" width="408" height="408" filterUnits="userSpaceOnUse" color-interpolation-filters="sRGB">
<feFlood flood-opacity="0" result="BackgroundImageFix"/>
<feColorMatrix in="SourceAlpha" type="matrix" values="0 0 0 0 0 0 0 0 0 0 0 0 0 0 0 0 0 0 127 0" result="hardAlpha"/>
<feOffset dy="4"/>
<feGaussianBlur stdDeviation="2"/>
<feComposite in2="hardAlpha" operator="out"/>
<feColorMatrix type="matrix" values="0 0 0 0 0 0 0 0 0 0 0 0 0 0 0 0 0 0 0.25 0"/>
<feBlend mode="normal" in2="BackgroundImageFix" result="effect1_dropShadow_19_99"/>
<feBlend mode="normal" in="SourceGraphic" in2="effect1_dropShadow_19_99" result="shape"/>
</filter>
<filter id="filter2_f_19_99" x="24.8202" y="20.9996" width="377" height="385" filterUnits="userSpaceOnUse" color-interpolation-filters="sRGB">
<feFlood flood-opacity="0" result="BackgroundImageFix"/>
<feBlend mode="normal" in="SourceGraphic" in2="BackgroundImageFix" result="shape"/>
<feGaussianBlur stdDeviation="1" result="effect1_foregroundBlur_19_99"/>
</filter>
<filter id="filter3_i_19_99" x="120.307" y="36.6929" width="63.2886" height="92.1754" filterUnits="userSpaceOnUse" color-interpolation-filters="sRGB">
<feFlood flood-opacity="0" result="BackgroundImageFix"/>
<feBlend mode="normal" in="SourceGraphic" in2="BackgroundImageFix" result="shape"/>
<feColorMatrix in="SourceAlpha" type="matrix" values="0 0 0 0 0 0 0 0 0 0 0 0 0 0 0 0 0 0 127 0" result="hardAlpha"/>
<feOffset dx="5" dy="-3"/>
<feComposite in2="hardAlpha" operator="arithmetic" k2="-1" k3="1"/>
<feColorMatrix type="matrix" values="0 0 0 0 1 0 0 0 0 0 0 0 0 0 0.96 0 0 0 0.28 0"/>
<feBlend mode="normal" in2="shape" result="effect1_innerShadow_19_99"/>
</filter>
<filter id="filter4_i_19_99" x="0" y="6.25909" width="201.624" height="229.498" filterUnits="userSpaceOnUse" color-interpolation-filters="sRGB">
<feFlood flood-opacity="0" result="BackgroundImageFix"/>
<feBlend mode="normal" in="SourceGraphic" in2="BackgroundImageFix" result="shape"/>
<feColorMatrix in="SourceAlpha" type="matrix" values="0 0 0 0 0 0 0 0 0 0 0 0 0 0 0 0 0 0 127 0" result="hardAlpha"/>
<feOffset dx="10" dy="-3"/>
<feGaussianBlur stdDeviation="15"/>
<feComposite in2="hardAlpha" operator="arithmetic" k2="-1" k3="1"/>
<feColorMatrix type="matrix" values="0 0 0 0 1 0 0 0 0 0 0 0 0 0 0.72 0 0 0 0.15 0"/>
<feBlend mode="normal" in2="shape" result="effect1_innerShadow_19_99"/>
</filter>
<filter id="filter5_i_19_99" x="312.82" y="30.9996" width="121" height="296" filterUnits="userSpaceOnUse" color-interpolation-filters="sRGB">
<feFlood flood-opacity="0" result="BackgroundImageFix"/>
<feBlend mode="normal" in="SourceGraphic" in2="BackgroundImageFix" result="shape"/>
<feColorMatrix in="SourceAlpha" type="matrix" values="0 0 0 0 0 0 0 0 0 0 0 0 0 0 0 0 0 0 127 0" result="hardAlpha"/>
<feOffset dy="4"/>
<feGaussianBlur stdDeviation="2"/>
<feComposite in2="hardAlpha" operator="arithmetic" k2="-1" k3="1"/>
<feColorMatrix type="matrix" values="0 0 0 0 0 0 0 0 0 0 0 0 0 0 0 0 0 0 0.25 0"/>
<feBlend mode="normal" in2="shape" result="effect1_innerShadow_19_99"/>
</filter>
<radialGradient id="paint0_radial_19_99" cx="0" cy="0" r="1" gradientUnits="userSpaceOnUse" gradientTransform="translate(272 124.5) rotate(-40.0348) scale(191.993)">
<stop stop-color="#FFF39F"/>
<stop offset="0.322917" stop-color="#FFED49"/>
<stop offset="1" stop-color="#FF5A26"/>
</radialGradient>
<radialGradient id="paint1_radial_19_99" cx="0" cy="0" r="1" gradientUnits="userSpaceOnUse" gradientTransform="translate(273.32 142) rotate(-34.3847) scale(285.969 284.553)">
<stop stop-color="#FF9900"/>
<stop offset="0.627309" stop-color="#180101"/>
<stop offset="0.868784" stop-color="#430606"/>
</radialGradient>
<linearGradient id="paint2_linear_19_99" x1="221.32" y1="317" x2="230.692" y2="41.9782" gradientUnits="userSpaceOnUse">
<stop stop-color="#170F49"/>
<stop offset="0.896738" stop-color="#030303" stop-opacity="0"/>
</linearGradient>
<linearGradient id="paint3_linear_19_99" x1="151.952" y1="36.6929" x2="151.952" y2="128.868" gradientUnits="userSpaceOnUse">
<stop stop-color="#A00A00"/>
<stop offset="1" stop-color="#FF003B"/>
</linearGradient>
<linearGradient id="paint4_linear_19_99" x1="129" y1="73.5" x2="129.142" y2="404.284" gradientUnits="userSpaceOnUse">
<stop stop-color="#DB0000"/>
<stop offset="1" stop-color="#FFF04E"/>
</linearGradient>
<linearGradient id="paint5_linear_19_99" x1="196.7" y1="363.219" x2="353.325" y2="267.35" gradientUnits="userSpaceOnUse">
<stop stop-color="#FFD600"/>
<stop offset="1" stop-color="#D90008"/>
</linearGradient>
<linearGradient id="paint6_linear_19_99" x1="279.38" y1="393.281" x2="264.219" y2="209.518" gradientUnits="userSpaceOnUse">
<stop stop-color="#FC2530"/>
<stop offset="1" stop-color="#FF8006"/>
</linearGradient>
<linearGradient id="paint7_linear_19_99" x1="147.5" y1="-104" x2="182" y2="181" gradientUnits="userSpaceOnUse">
<stop offset="0.473958" stop-color="#FF4420"/>
<stop offset="1" stop-color="#FFBE17"/>
</linearGradient>
<linearGradient id="paint8_linear_19_99" x1="-0.270349" y1="21.1795" x2="201.71" y2="189.329" gradientUnits="userSpaceOnUse">
<stop offset="0.203125" stop-color="#FF2E29"/>
<stop offset="0.59375" stop-color="#F8AD1D"/>
<stop offset="1" stop-color="#FFEC3D"/>
</linearGradient>
<linearGradient id="paint9_linear_19_99" x1="109.809" y1="294.864" x2="271.394" y2="422.617" gradientUnits="userSpaceOnUse">
<stop stop-color="#FFEF4D"/>
<stop offset="1" stop-color="#B00404"/>
</linearGradient>
<linearGradient id="paint10_linear_19_99" x1="380.101" y1="322.905" x2="365.251" y2="33.5691" gradientUnits="userSpaceOnUse">
<stop offset="0.198253" stop-color="#A91E00"/>
<stop offset="0.705273" stop-color="#FF9900"/>
</linearGradient>
<linearGradient id="paint11_linear_19_99" x1="387.179" y1="323.179" x2="383.408" y2="59.2078" gradientUnits="userSpaceOnUse">
<stop offset="0.114584" stop-color="#D80000"/>
<stop offset="0.868036" stop-color="#FFE81A"/>
</linearGradient>
</defs>
</svg>
